<svg width="28" height="24" viewBox="0 0 28 24" fill="none" xmlns="http://www.w3.org/2000/svg">
<path fill-rule="evenodd" clip-rule="evenodd" d="M6.50774 14.3595C6.5661 14.3792 6.625 14.3931 6.68386 14.4016C6.74804 14.5525 6.83096 14.7476 6.92771 14.9757C7.16382 15.5325 7.48194 16.2857 7.8103 17.0713C8.47996 18.6736 9.15544 20.3252 9.30463 20.798C9.48931 21.3824 9.68452 21.7797 9.89763 22.0511C10.0078 22.1913 10.1353 22.3137 10.2844 22.4065C10.3595 22.4532 10.4388 22.4915 10.5215 22.52C10.5252 22.5213 10.5288 22.5225 10.5325 22.5237C10.9592 22.6848 11.3482 22.6177 11.5917 22.5357C11.722 22.4917 11.8275 22.4388 11.9022 22.3959C11.9403 22.3739 11.9725 22.3535 11.9982 22.3361L12.0042 22.3321L15.7725 19.9821L20.1252 23.3192C20.1895 23.3684 20.2595 23.4097 20.3337 23.4421C20.8567 23.6703 21.3629 23.7499 21.8393 23.6848C22.3148 23.6199 22.6924 23.4201 22.9735 23.1952C23.2487 22.9751 23.4352 22.7284 23.5515 22.5452C23.6108 22.4516 23.6553 22.3688 23.6867 22.3055C23.7025 22.2736 23.7152 22.2461 23.7249 22.2241L23.7376 22.1951L23.7423 22.1836L23.7443 22.1788L23.7452 22.1765L23.746 22.1744C23.7689 22.1172 23.7864 22.058 23.7984 21.9976L27.7721 1.96365C27.7848 1.89959 27.7912 1.83441 27.7912 1.76909C27.7912 1.18241 27.5701 0.624547 27.0504 0.286027C26.6061 -0.00330677 26.1112 -0.0157601 25.7984 0.00797327C25.4611 0.0335866 25.1495 0.11688 24.9403 0.183426C24.8315 0.218066 24.7403 0.25148 24.6745 0.276973C24.6415 0.289787 24.6143 0.300787 24.5941 0.309173L24.5789 0.315547L2.29402 9.0576L2.29114 9.05867C2.27694 9.06387 2.2587 9.07067 2.23703 9.07907C2.19388 9.09587 2.13606 9.11947 2.06852 9.15013C1.93682 9.20987 1.75204 9.30307 1.56243 9.43293C1.25951 9.6404 0.562858 10.2085 0.680164 11.1463C0.773751 11.8944 1.28626 12.3539 1.59851 12.5748C1.76996 12.6961 1.93286 12.7828 2.05148 12.8393C2.10651 12.8655 2.22078 12.9119 2.27035 12.9321L2.28287 12.9372L6.50774 14.3595ZM25.3589 2.15715L25.3557 2.15851C25.3447 2.16333 25.3335 2.16795 25.3223 2.17237L3.01022 10.9251C2.99856 10.9296 2.98683 10.934 2.97502 10.9381L2.9626 10.9428C2.94832 10.9484 2.9243 10.9581 2.89414 10.9717C2.87703 10.9795 2.85918 10.988 2.84098 10.9971C2.86599 11.0112 2.88991 11.0233 2.91118 11.0335C2.93159 11.0432 2.94716 11.0499 2.95568 11.0533L7.14586 12.464C7.22255 12.4899 7.29404 12.524 7.35967 12.5653L21.1953 4.46597L21.2083 4.45832C21.2184 4.45236 21.2316 4.44471 21.2475 4.43573C21.2789 4.41793 21.3223 4.39424 21.3737 4.36804C21.4697 4.31917 21.6233 4.24663 21.7964 4.19313C21.9169 4.15589 22.2723 4.05097 22.6564 4.17419C22.8935 4.25023 23.1389 4.41371 23.2985 4.69064C23.3779 4.82823 23.4201 4.96644 23.4405 5.09296C23.4949 5.29227 23.4864 5.48908 23.4439 5.65899C23.3521 6.025 23.0949 6.31049 22.8609 6.52887C22.6605 6.71608 20.0667 9.2172 17.5079 11.6863C16.2317 12.9175 14.9687 14.1367 14.0247 15.0479L13.4045 15.6465L21.2339 21.6489C21.4133 21.7132 21.5195 21.71 21.5687 21.7032C21.6272 21.6952 21.6751 21.6727 21.724 21.6336C21.7787 21.5899 21.8265 21.5307 21.8623 21.4743L21.8637 21.472L25.7177 2.04136C25.6605 2.05511 25.6027 2.07148 25.5469 2.08921C25.4837 2.10931 25.4317 2.12845 25.3972 2.14183C25.3801 2.14845 25.3679 2.15348 25.3612 2.15625L25.3589 2.15715ZM14.0772 18.6824L12.5152 17.4848L12.1367 19.8924L14.0772 18.6824ZM11.0823 15.1085L12.6356 13.6089C13.5797 12.6976 14.8429 11.4784 16.1191 10.2469L17.4157 8.996L8.72239 14.0851L8.76903 14.1951C9.00596 14.7539 9.32551 15.5103 9.65562 16.3001C9.90246 16.8907 10.1606 17.5125 10.3957 18.0883L10.7731 15.6877C10.8094 15.4563 10.9225 15.256 11.0823 15.1085Z" fill="white"/>
</svg>
