<svg width="24" height="24" viewBox="0 0 24 24" fill="none" xmlns="http://www.w3.org/2000/svg">
<path fill-rule="evenodd" clip-rule="evenodd" d="M10.1359 8.10688C9.9042 7.96786 9.61561 7.96422 9.38048 8.09735C9.14534 8.23048 9 8.4798 9 8.75V14.75C9 15.0202 9.14534 15.2695 9.38048 15.4026C9.61561 15.5358 9.9042 15.5321 10.1359 15.3931L15.1359 12.3931C15.3618 12.2576 15.5 12.0134 15.5 11.75C15.5 11.4866 15.3618 11.2424 15.1359 11.1069L10.1359 8.10688ZM13.2923 11.75L10.5 13.4254V10.0746L13.2923 11.75Z" fill="white"/>
<path fill-rule="evenodd" clip-rule="evenodd" d="M17.3951 4.19648C14.0464 3.93451 10.6824 3.93451 7.33376 4.19648L5.09306 4.37178C3.7305 4.47838 2.61581 5.49959 2.39057 6.84763C1.86981 9.96441 1.86981 13.146 2.39057 16.2628C2.61581 17.6108 3.7305 18.632 5.09306 18.7386L7.33376 18.9139C10.6824 19.1759 14.0464 19.1759 17.3951 18.9139L19.6358 18.7386C20.9983 18.632 22.113 17.6108 22.3383 16.2628C22.859 13.146 22.859 9.96441 22.3383 6.84763C22.113 5.49959 20.9983 4.47838 19.6358 4.37178L17.3951 4.19648ZM7.45076 5.69192C10.7216 5.43603 14.0073 5.43603 17.2781 5.69192L19.5188 5.86721C20.1944 5.92007 20.7471 6.42642 20.8588 7.09483C21.3522 10.0479 21.3522 13.0625 20.8588 16.0156C20.7471 16.684 20.1944 17.1903 19.5188 17.2432L17.2781 17.4185C14.0073 17.6744 10.7215 17.6744 7.45076 17.4185L5.21006 17.2432C4.53445 17.1903 3.98174 16.684 3.87006 16.0156C3.37665 13.0625 3.37665 10.0479 3.87006 7.09483C3.98174 6.42642 4.53445 5.92007 5.21006 5.86721L7.45076 5.69192Z" fill="white"/>
</svg>
