<svg width="32" height="32" viewBox="0 0 32 32" fill="none" xmlns="http://www.w3.org/2000/svg">
<path fill-rule="evenodd" clip-rule="evenodd" d="M7.78729 13.1418C10.1704 18.331 14.4111 22.4566 19.6827 24.692L19.6993 24.6991L20.7177 25.153C22.0147 25.7308 23.5389 25.3204 24.3704 24.1696L26.0696 21.818C26.1733 21.6744 26.1465 21.4747 26.0087 21.3634L23.0424 18.9703C22.8949 18.8514 22.678 18.8791 22.5652 19.0312L21.4108 20.5891C21.1304 20.9675 20.624 21.099 20.1951 20.9048C16.2532 19.1208 13.0855 15.9532 11.3016 12.0114C11.1075 11.5823 11.2389 11.076 11.6173 10.7956L13.1751 9.64116C13.3273 9.52834 13.3551 9.31152 13.2361 9.16405L10.8427 6.19733C10.7314 6.05944 10.5318 6.03266 10.3882 6.13636L8.02375 7.84324C6.86537 8.67949 6.45743 10.2166 7.04871 11.5172L7.7865 13.1401L7.78729 13.1418ZM18.8935 26.5298C13.1655 24.0983 8.55831 19.6143 5.96893 13.9746L5.96737 13.9712L5.22803 12.3449C4.24257 10.1773 4.92246 7.61538 6.85311 6.22164L9.2175 4.51476C10.223 3.78888 11.6206 3.97636 12.3993 4.94154L14.7927 7.90828C15.6255 8.9405 15.4315 10.4584 14.3659 11.248L13.4732 11.9096C14.9812 14.8354 17.3709 17.2252 20.2968 18.7331L20.9584 17.8404C21.748 16.775 23.2659 16.581 24.2981 17.4138L27.2644 19.8067C28.2299 20.5856 28.4172 21.9839 27.6907 22.9894L25.9915 25.341C24.6057 27.259 22.0652 27.943 19.9039 26.9799L18.8935 26.5298Z" fill="white"/>
</svg>
