<svg width="16" height="15" viewBox="0 0 16 15" fill="none" xmlns="http://www.w3.org/2000/svg">
<path d="M7.52413 1.10453C7.67315 0.642481 8.32686 0.642485 8.47587 1.10452L9.53369 4.38455C9.73389 5.00532 10.3123 5.42556 10.9646 5.42414L14.4109 5.41661C14.8964 5.41554 15.0984 6.03726 14.705 6.32176L11.9124 8.34139C11.3839 8.72362 11.163 9.40359 11.3659 10.0235L12.438 13.2988C12.5891 13.7602 12.0602 14.1445 11.6681 13.8583L8.88433 11.8264C8.35748 11.4419 7.64252 11.4419 7.11567 11.8264L4.33193 13.8583C3.93979 14.1445 3.41093 13.7602 3.56196 13.2989L4.63411 10.0235C4.83702 9.40359 4.61609 8.72362 4.08757 8.34139L1.29496 6.32176C0.90158 6.03726 1.10359 5.41554 1.58906 5.41661L5.03544 5.42414C5.68769 5.42556 6.26611 5.00532 6.46631 4.38455L7.52413 1.10453Z" fill="#292A2D" stroke="#FAF62D"/>
</svg>
