<svg width="24" height="24" viewBox="0 0 24 24" fill="none" xmlns="http://www.w3.org/2000/svg">
<path fill-rule="evenodd" clip-rule="evenodd" d="M6.38056 13.7696C6.42433 13.7844 6.46851 13.7948 6.51265 13.8012C6.56079 13.9144 6.62298 14.0607 6.69554 14.2318C6.87262 14.6494 7.11121 15.2143 7.35748 15.8035C7.85973 17.0052 8.36634 18.2439 8.47823 18.5985C8.61674 19.0368 8.76315 19.3348 8.92298 19.5383C9.00563 19.6435 9.10121 19.7353 9.21305 19.8049C9.26935 19.8399 9.32883 19.8686 9.39091 19.89C9.39364 19.891 9.39637 19.8919 9.3991 19.8928C9.71912 20.0136 10.0109 19.9633 10.1935 19.9018C10.2913 19.8688 10.3704 19.8291 10.4264 19.7969C10.455 19.7804 10.4791 19.7651 10.4984 19.7521L10.5029 19.7491L13.3292 17.9866L16.5937 20.4894C16.6419 20.5263 16.6944 20.5573 16.7501 20.5816C17.1423 20.7527 17.522 20.8124 17.8793 20.7636C18.2359 20.7149 18.5191 20.5651 18.7299 20.3964C18.9363 20.2313 19.0762 20.0463 19.1634 19.9089C19.2079 19.8387 19.2413 19.7766 19.2648 19.7291C19.2767 19.7052 19.2862 19.6846 19.2935 19.6681L19.303 19.6463L19.3065 19.6377L19.308 19.6341L19.3087 19.6324L19.3093 19.6308C19.3265 19.5879 19.3396 19.5435 19.3486 19.4982L22.3289 4.47274C22.3384 4.42469 22.3432 4.37581 22.3432 4.32682C22.3432 3.88681 22.1774 3.46841 21.7876 3.21452C21.4544 2.99752 21.0832 2.98818 20.8486 3.00598C20.5956 3.02519 20.3619 3.08766 20.205 3.13757C20.1234 3.16355 20.055 3.18861 20.0057 3.20773C19.9809 3.21734 19.9605 3.22559 19.9454 3.23188L19.934 3.23666L3.22027 9.7932L3.21811 9.794C3.20746 9.7979 3.19378 9.803 3.17753 9.8093C3.14517 9.8219 3.1018 9.8396 3.05115 9.8626C2.95237 9.9074 2.81379 9.9773 2.67158 10.0747C2.44439 10.2303 1.9219 10.6564 2.00988 11.3597C2.08007 11.9208 2.46445 12.2654 2.69864 12.4311C2.82723 12.5221 2.9494 12.5871 3.03837 12.6295C3.07964 12.6491 3.16534 12.6839 3.20252 12.6991L3.21191 12.7029L6.38056 13.7696ZM20.519 4.61786L20.5166 4.61888C20.5083 4.6225 20.4999 4.62596 20.4915 4.62928L3.75742 11.1938C3.74868 11.1972 3.73988 11.2005 3.73102 11.2036L3.72171 11.2071C3.711 11.2113 3.69298 11.2186 3.67036 11.2288C3.65753 11.2346 3.64414 11.241 3.63049 11.2478C3.64925 11.2584 3.66719 11.2675 3.68314 11.2751C3.69845 11.2824 3.71013 11.2874 3.71652 11.29L6.85915 12.348C6.91667 12.3674 6.97029 12.393 7.01951 12.424L17.3963 6.34948L17.406 6.34374C17.4136 6.33927 17.4235 6.33353 17.4354 6.3268C17.459 6.31345 17.4915 6.29568 17.5301 6.27603C17.6021 6.23938 17.7173 6.18497 17.8471 6.14485C17.9375 6.11692 18.204 6.03823 18.4921 6.13064C18.6699 6.18767 18.854 6.31028 18.9737 6.51798C19.0332 6.62117 19.0649 6.72483 19.0802 6.81972C19.121 6.9692 19.1146 7.11681 19.0827 7.24424C19.0139 7.51875 18.821 7.73287 18.6455 7.89665C18.4952 8.03706 16.5498 9.9129 14.6307 11.7647C13.6736 12.6881 12.7263 13.6025 12.0183 14.2859L11.5532 14.7349L17.4252 19.2367C17.5598 19.2849 17.6394 19.2825 17.6763 19.2774C17.7202 19.2714 17.7561 19.2545 17.7928 19.2252C17.8338 19.1924 17.8697 19.148 17.8965 19.1057L17.8976 19.104L20.7881 4.53102C20.7452 4.54133 20.7018 4.55361 20.66 4.56691C20.6126 4.58198 20.5736 4.59634 20.5477 4.60637C20.5349 4.61134 20.5257 4.61511 20.5207 4.61719L20.519 4.61786ZM12.0577 17.0118L10.8862 16.1136L10.6023 17.9193L12.0577 17.0118ZM9.81148 14.3314L10.9765 13.2067C11.6846 12.5232 12.632 11.6088 13.5891 10.6852L14.5616 9.747L8.04155 13.5638L8.07653 13.6463C8.25423 14.0654 8.49389 14.6327 8.74147 15.2251C8.9266 15.668 9.12019 16.1344 9.29652 16.5662L9.57955 14.7658C9.60684 14.5922 9.69164 14.442 9.81148 14.3314Z" fill="white"/>
</svg>
