<svg width="32" height="32" viewBox="0 0 32 32" fill="none" xmlns="http://www.w3.org/2000/svg">
<path fill-rule="evenodd" clip-rule="evenodd" d="M10.333 9.99998C10.333 6.87037 12.8701 4.33331 15.9997 4.33331C19.1293 4.33331 21.6663 6.87037 21.6663 9.99998C21.6663 13.1296 19.1293 15.6666 15.9997 15.6666C12.8701 15.6666 10.333 13.1296 10.333 9.99998ZM15.9997 6.33331C13.9746 6.33331 12.333 7.97494 12.333 9.99998C12.333 12.025 13.9746 13.6666 15.9997 13.6666C18.0247 13.6666 19.6663 12.025 19.6663 9.99998C19.6663 7.97494 18.0247 6.33331 15.9997 6.33331Z" fill="white"/>
<path fill-rule="evenodd" clip-rule="evenodd" d="M10.667 19.6667C9.01014 19.6667 7.66699 21.0099 7.66699 22.6667V24.2511C7.66699 24.2752 7.68447 24.2958 7.70829 24.2996C13.2 25.1963 18.8007 25.1963 24.2923 24.2996C24.3162 24.2958 24.3337 24.2752 24.3337 24.2511V22.6667C24.3337 21.0099 22.9905 19.6667 21.3337 19.6667H20.8791C20.8441 19.6667 20.8091 19.6723 20.7757 19.6831L19.6217 20.06C17.2686 20.8283 14.7321 20.8283 12.379 20.06L11.225 19.6831C11.1916 19.6723 11.1566 19.6667 11.1215 19.6667H10.667ZM5.66699 22.6667C5.66699 19.9052 7.90557 17.6667 10.667 17.6667H11.1215C11.3675 17.6667 11.6119 17.7056 11.8458 17.7819L12.9998 18.1588C14.9495 18.7954 17.0511 18.7954 19.0009 18.1588L20.1549 17.7819C20.3887 17.7056 20.6331 17.6667 20.8791 17.6667H21.3337C24.0951 17.6667 26.3337 19.9052 26.3337 22.6667V24.2511C26.3337 25.2554 25.6058 26.1116 24.6146 26.2735C18.9095 27.205 13.0911 27.205 7.38602 26.2735C6.39483 26.1116 5.66699 25.2554 5.66699 24.2511V22.6667Z" fill="white"/>
</svg>
